<svg width="738" height="645" viewBox="0 0 738 645" fill="none" xmlns="http://www.w3.org/2000/svg">
<ellipse cx="504.268" cy="235.669" rx="180.142" ry="235.669" fill="#3E9E18"/>
<circle cx="235.669" cy="408.709" r="235.669" fill="#FF82BC"/>
<circle cx="185.307" cy="313.15" r="14.8504" fill="black"/>
<circle cx="466.819" cy="158.189" r="14.8504" fill="black"/>
<circle cx="279.575" cy="313.15" r="14.8504" fill="black"/>
<circle cx="541.717" cy="158.189" r="14.8504" fill="black"/>
<path d="M206.614 351.244C213.993 355.142 234.655 360.599 258.268 351.244" stroke="black" stroke-width="10.3307" stroke-linecap="round"/>
<path d="M522.885 201.704C517.961 198.915 504.116 194.902 488.126 201.171" stroke="black" stroke-width="10.3307" stroke-linecap="round"/>
<path d="M529.449 127.843L552.047 117.512M468.756 127.843L453.26 112.346" stroke="black" stroke-width="6.45669" stroke-linecap="round"/>
<path d="M220.314 189.948C223.462 202.262 234.568 221.254 253.802 198.714C273.037 176.173 239.491 157.181 220.314 150.502C213.874 157.389 204.857 171.039 220.314 170.538C235.77 170.037 244.786 139.858 247.362 124.831V90.3937" stroke="black" stroke-width="6.45669" stroke-linecap="round"/>
<path d="M738 440.992C738 510.528 730.634 579.811 661.811 579.811C592.988 579.811 502.331 496.969 502.331 427.433C502.331 357.897 592.988 328 661.811 328C730.634 328 738 371.456 738 440.992Z" fill="#391E99"/>
<circle cx="584.976" cy="391.276" r="10.9764" fill="white" stroke="white" stroke-width="1.29134"/>
<path d="M672.142 391.276C672.142 397.305 666.972 402.252 660.52 402.252C654.068 402.252 648.898 397.305 648.898 391.276C648.898 385.246 654.068 380.299 660.52 380.299C666.972 380.299 672.142 385.246 672.142 391.276Z" fill="white" stroke="white" stroke-width="1.29134"/>
<path d="M613.386 413.228C615.969 416.152 623.2 420.245 631.465 413.228" stroke="white" stroke-width="10.3307" stroke-linecap="round"/>
</svg>
