<svg width="164" height="39" viewBox="0 0 164 39" fill="none" xmlns="http://www.w3.org/2000/svg">
<path d="M2.32858 35V4.23267H15.0381C17.3417 4.23267 19.3297 4.68336 21.0023 5.58475C22.6849 6.47612 23.9819 7.72303 24.8933 9.3255C25.8047 10.918 26.2604 12.7708 26.2604 14.8841C26.2604 17.0073 25.7947 18.8652 24.8633 20.4576C23.9418 22.0401 22.6248 23.2669 20.9122 24.1383C19.1995 25.0096 17.1664 25.4453 14.8128 25.4453H6.97072V19.5863H13.4307C14.5524 19.5863 15.4888 19.391 16.24 19.0004C17.0012 18.6098 17.577 18.0639 17.9676 17.3629C18.3582 16.6518 18.5535 15.8255 18.5535 14.8841C18.5535 13.9326 18.3582 13.1113 17.9676 12.4203C17.577 11.7192 17.0012 11.1784 16.24 10.7978C15.4788 10.4172 14.5424 10.2269 13.4307 10.2269H9.76502V35H2.32858Z" fill="#363636"/>
<path d="M80.2565 15.3798H72.745C72.6448 14.6086 72.4395 13.9126 72.129 13.2916C71.8186 12.6706 71.4079 12.1398 70.8972 11.6992C70.3864 11.2585 69.7804 10.923 69.0794 10.6926C68.3883 10.4522 67.6221 10.332 66.7808 10.332C65.2885 10.332 64.0015 10.6976 62.9199 11.4287C61.8482 12.1599 61.022 13.2165 60.4411 14.5986C59.8702 15.9807 59.5847 17.6533 59.5847 19.6163C59.5847 21.6595 59.8752 23.3721 60.4561 24.7542C61.047 26.1263 61.8733 27.1629 62.9349 27.864C64.0065 28.5551 65.2735 28.9006 66.7357 28.9006C67.557 28.9006 68.3032 28.7955 68.9742 28.5851C69.6552 28.3748 70.2512 28.0693 70.7619 27.6687C71.2827 27.2581 71.7084 26.7623 72.0389 26.1814C72.3794 25.5905 72.6148 24.9245 72.745 24.1834L80.2565 24.2284C80.1263 25.5905 79.7307 26.9326 79.0697 28.2546C78.4187 29.5767 77.5223 30.7835 76.3806 31.8752C75.2388 32.9569 73.8467 33.8182 72.2042 34.4592C70.5716 35.1002 68.6988 35.4206 66.5855 35.4206C63.8012 35.4206 61.3074 34.8097 59.104 33.5878C56.9106 32.3559 55.178 30.5632 53.906 28.2096C52.6341 25.8559 51.9981 22.9915 51.9981 19.6163C51.9981 16.2311 52.6441 13.3617 53.9361 11.0081C55.228 8.65447 56.9757 6.86672 59.1791 5.64484C61.3825 4.42296 63.8513 3.81202 66.5855 3.81202C68.4484 3.81202 70.171 4.07242 71.7535 4.59322C73.3359 5.10401 74.728 5.85516 75.9299 6.84669C77.1317 7.8282 78.1082 9.03505 78.8594 10.4673C79.6106 11.8995 80.0763 13.537 80.2565 15.3798ZM84.5118 35V4.23267H91.9483V17.2427H92.3539L102.525 4.23267H111.283L100.376 17.9638L111.478 35H102.585L94.9229 22.9064L91.9483 26.6622V35H84.5118ZM121.653 4.23267V35H114.216V4.23267H121.653Z" fill="#363636"/>
<rect x="34.6667" y="13.8116" width="8.66667" height="21.8551" rx="1.49729" fill="#FF82BC"/>
<path d="M37.7403 2.96047C38.3297 2.04326 39.6703 2.04327 40.2597 2.96047L48.7762 16.2151C49.4165 17.2115 48.701 18.5217 47.5165 18.5217H30.4835C29.299 18.5217 28.5835 17.2115 29.2238 16.2151L37.7403 2.96047Z" fill="#FF82BC"/>
</svg>
