<svg width="432" height="135" viewBox="0 0 432 135" fill="none" xmlns="http://www.w3.org/2000/svg">
<path d="M8.06048 121V14.4977H52.0551C60.0289 14.4977 66.9106 16.0578 72.7003 19.178C78.5247 22.2635 83.0143 26.5797 86.1691 32.1267C89.324 37.6391 90.9014 44.0528 90.9014 51.3679C90.9014 58.7176 89.2893 65.1487 86.0651 70.661C82.8756 76.1387 78.3166 80.3856 72.3883 83.4018C66.4599 86.418 59.4222 87.926 51.275 87.926H24.1294V67.6448H46.4908C50.3737 67.6448 53.6152 66.9688 56.2153 65.6167C58.8502 64.2646 60.8436 62.3752 62.1957 59.9484C63.5478 57.4869 64.2238 54.6267 64.2238 51.3679C64.2238 48.0743 63.5478 45.2315 62.1957 42.8394C60.8436 40.4126 58.8502 38.5404 56.2153 37.223C53.5805 35.9056 50.339 35.2469 46.4908 35.2469H33.802V121H8.06048Z" fill="#363636"/>
<path d="M277.734 54.084H251.733C251.386 51.4145 250.675 49.005 249.601 46.8555C248.526 44.7061 247.104 42.8686 245.336 41.3432C243.568 39.8178 241.471 38.6564 239.044 37.859C236.652 37.027 234 36.6109 231.087 36.6109C225.922 36.6109 221.467 37.8763 217.723 40.4072C214.013 42.938 211.153 46.5955 209.142 51.3798C207.166 56.1641 206.178 61.9538 206.178 68.7488C206.178 75.8213 207.183 81.7496 209.194 86.5339C211.24 91.2835 214.1 94.8717 217.775 97.2985C221.484 99.6907 225.87 100.887 230.931 100.887C233.774 100.887 236.357 100.523 238.68 99.7947C241.037 99.0666 243.1 98.0092 244.868 96.6225C246.671 95.2011 248.144 93.485 249.289 91.4742C250.467 89.4287 251.282 87.1233 251.733 84.5578L277.734 84.7138C277.284 89.4287 275.914 94.0743 273.626 98.6506C271.372 103.227 268.27 107.404 264.317 111.183C260.365 114.928 255.546 117.909 249.861 120.128C244.21 122.347 237.727 123.456 230.411 123.456C220.773 123.456 212.141 121.341 204.514 117.112C196.921 112.847 190.924 106.642 186.521 98.4946C182.118 90.3475 179.916 80.4322 179.916 68.7488C179.916 57.0308 182.153 47.0982 186.625 38.9511C191.097 30.8039 197.147 24.6156 204.774 20.386C212.401 16.1564 220.947 14.0416 230.411 14.0416C236.86 14.0416 242.823 14.943 248.3 16.7458C253.778 18.5139 258.597 21.114 262.757 24.5462C266.918 27.9438 270.298 32.1213 272.898 37.079C275.498 42.0366 277.11 47.7049 277.734 54.084ZM292.464 122V15.4977H318.206V60.5324H319.61L354.816 15.4977H385.134L347.379 63.0285L385.81 122H355.024L328.502 80.1375L318.206 93.1383V122H292.464ZM421.029 15.4977V122H395.287V15.4977H421.029Z" fill="#363636"/>
<rect x="120" y="47.8094" width="30" height="75.6522" rx="5.18293" fill="#FF82BC"/>
<path d="M130.64 10.2478C132.68 7.07285 137.32 7.07285 139.36 10.2478L168.841 56.1291C171.057 59.5784 168.58 64.1137 164.48 64.1137H105.52C101.42 64.1137 98.9429 59.5784 101.159 56.1291L130.64 10.2478Z" fill="#FF82BC"/>
</svg>
